<svg width="579" height="137" viewBox="0 0 579 137" fill="none" xmlns="http://www.w3.org/2000/svg">
<path d="M135.71 81.5C135.71 86.06 134.96 90.32 133.46 94.28C131.96 98.18 129.83 101.6 127.07 104.54C124.37 107.48 121.16 109.79 117.44 111.47C113.72 113.09 109.64 113.9 105.2 113.9C100.82 113.9 96.77 113.09 93.05 111.47C89.33 109.79 86.09 107.48 83.33 104.54C80.63 101.6 78.53 98.18 77.03 94.28C75.59 90.32 74.87 86.06 74.87 81.5C74.87 76.94 75.59 72.71 77.03 68.81C78.53 64.85 80.63 61.4 83.33 58.46C86.09 55.52 89.33 53.24 93.05 51.62C96.77 49.94 100.82 49.1 105.2 49.1C109.64 49.1 113.72 49.94 117.44 51.62C121.16 53.24 124.37 55.52 127.07 58.46C129.83 61.4 131.96 64.85 133.46 68.81C134.96 72.71 135.71 76.94 135.71 81.5ZM125.99 81.5C125.99 77.06 125.09 73.07 123.29 69.53C121.55 65.99 119.12 63.2 116 61.16C112.88 59.12 109.28 58.1 105.2 58.1C101.18 58.1 97.61 59.12 94.49 61.16C91.37 63.2 88.94 65.99 87.2 69.53C85.46 73.01 84.59 77 84.59 81.5C84.59 85.94 85.46 89.93 87.2 93.47C88.94 97.01 91.37 99.8 94.49 101.84C97.61 103.88 101.18 104.9 105.2 104.9C109.28 104.9 112.88 103.88 116 101.84C119.12 99.8 121.55 97.01 123.29 93.47C125.09 89.93 125.99 85.94 125.99 81.5ZM167.157 64.58C171.417 64.58 174.717 65.48 177.057 67.28C179.397 69.02 181.017 71.39 181.917 74.39C182.877 77.33 183.357 80.63 183.357 84.29V108.41C183.357 109.73 182.907 110.84 182.007 111.74C181.167 112.58 180.117 113 178.857 113C177.537 113 176.457 112.58 175.617 111.74C174.777 110.84 174.357 109.73 174.357 108.41V84.38C174.357 82.22 174.057 80.3 173.457 78.62C172.857 76.88 171.807 75.5 170.307 74.48C168.867 73.4 166.827 72.86 164.187 72.86C161.727 72.86 159.567 73.4 157.707 74.48C155.847 75.5 154.377 76.88 153.297 78.62C152.277 80.3 151.767 82.22 151.767 84.38V108.41C151.767 109.73 151.317 110.84 150.417 111.74C149.577 112.58 148.527 113 147.267 113C145.947 113 144.867 112.58 144.027 111.74C143.187 110.84 142.767 109.73 142.767 108.41V70.25C142.767 68.93 143.187 67.85 144.027 67.01C144.867 66.11 145.947 65.66 147.267 65.66C148.527 65.66 149.577 66.11 150.417 67.01C151.317 67.85 151.767 68.93 151.767 70.25V75.29L150.147 76.19C150.567 74.87 151.287 73.55 152.307 72.23C153.387 70.85 154.677 69.59 156.177 68.45C157.677 67.25 159.357 66.32 161.217 65.66C163.077 64.94 165.057 64.58 167.157 64.58ZM214.903 113.9C209.923 113.9 205.603 112.88 201.943 110.84C198.283 108.74 195.433 105.89 193.393 102.29C191.413 98.63 190.423 94.46 190.423 89.78C190.423 84.5 191.473 80 193.573 76.28C195.733 72.5 198.523 69.62 201.943 67.64C205.363 65.6 208.993 64.58 212.833 64.58C215.773 64.58 218.563 65.18 221.203 66.38C223.843 67.52 226.183 69.14 228.223 71.24C230.323 73.28 231.973 75.71 233.173 78.53C234.373 81.29 235.003 84.32 235.063 87.62C235.003 88.82 234.523 89.81 233.623 90.59C232.723 91.37 231.673 91.76 230.473 91.76H195.463L193.303 84.11H227.143L225.433 85.73V83.48C225.313 81.38 224.623 79.55 223.363 77.99C222.103 76.37 220.543 75.14 218.683 74.3C216.823 73.4 214.873 72.95 212.833 72.95C211.033 72.95 209.293 73.25 207.613 73.85C205.993 74.39 204.523 75.29 203.203 76.55C201.943 77.81 200.923 79.49 200.143 81.59C199.423 83.63 199.063 86.18 199.063 89.24C199.063 92.54 199.753 95.42 201.133 97.88C202.513 100.34 204.373 102.26 206.713 103.64C209.053 104.96 211.633 105.62 214.453 105.62C216.673 105.62 218.503 105.41 219.943 104.99C221.383 104.51 222.583 103.94 223.543 103.28C224.503 102.62 225.343 101.99 226.063 101.39C226.963 100.85 227.863 100.58 228.763 100.58C229.843 100.58 230.743 100.97 231.463 101.75C232.183 102.47 232.543 103.34 232.543 104.36C232.543 105.68 231.883 106.88 230.563 107.96C228.943 109.52 226.693 110.9 223.813 112.1C220.993 113.3 218.023 113.9 214.903 113.9ZM276.986 65.3C278.306 65.3 279.386 65.75 280.226 66.65C281.066 67.49 281.486 68.57 281.486 69.89V108.59C281.486 113.87 280.466 118.16 278.426 121.46C276.446 124.76 273.746 127.16 270.326 128.66C266.966 130.22 263.156 131 258.896 131C256.736 131 254.576 130.79 252.416 130.37C250.256 130.01 248.486 129.47 247.106 128.75C245.666 128.09 244.646 127.28 244.046 126.32C243.446 125.36 243.356 124.31 243.776 123.17C244.196 121.73 244.916 120.74 245.936 120.2C246.956 119.72 248.006 119.69 249.086 120.11C250.106 120.53 251.456 121.07 253.136 121.73C254.816 122.39 256.736 122.72 258.896 122.72C261.836 122.72 264.326 122.24 266.366 121.28C268.406 120.32 269.936 118.82 270.956 116.78C272.036 114.74 272.576 112.1 272.576 108.86V102.65L274.016 104.81C273.056 106.79 271.796 108.44 270.236 109.76C268.676 111.08 266.816 112.1 264.656 112.82C262.556 113.54 260.216 113.9 257.636 113.9C254.336 113.9 251.486 113.18 249.086 111.74C246.746 110.24 244.946 108.2 243.686 105.62C242.426 102.98 241.796 99.98 241.796 96.62V69.89C241.796 68.57 242.216 67.49 243.056 66.65C243.896 65.75 244.976 65.3 246.296 65.3C247.556 65.3 248.606 65.75 249.446 66.65C250.346 67.49 250.796 68.57 250.796 69.89V94.19C250.796 98.15 251.666 101.06 253.406 102.92C255.146 104.72 257.726 105.62 261.146 105.62C263.426 105.62 265.406 105.14 267.086 104.18C268.766 103.22 270.086 101.9 271.046 100.22C272.006 98.48 272.486 96.47 272.486 94.19V69.89C272.486 68.57 272.906 67.49 273.746 66.65C274.646 65.75 275.726 65.3 276.986 65.3ZM312.702 113.9C307.722 113.9 303.402 112.88 299.742 110.84C296.082 108.74 293.232 105.89 291.192 102.29C289.212 98.63 288.222 94.46 288.222 89.78C288.222 84.5 289.272 80 291.372 76.28C293.532 72.5 296.322 69.62 299.742 67.64C303.162 65.6 306.792 64.58 310.632 64.58C313.572 64.58 316.362 65.18 319.002 66.38C321.642 67.52 323.982 69.14 326.022 71.24C328.122 73.28 329.772 75.71 330.972 78.53C332.172 81.29 332.802 84.32 332.862 87.62C332.802 88.82 332.322 89.81 331.422 90.59C330.522 91.37 329.472 91.76 328.272 91.76H293.262L291.102 84.11H324.942L323.232 85.73V83.48C323.112 81.38 322.422 79.55 321.162 77.99C319.902 76.37 318.342 75.14 316.482 74.3C314.622 73.4 312.672 72.95 310.632 72.95C308.832 72.95 307.092 73.25 305.412 73.85C303.792 74.39 302.322 75.29 301.002 76.55C299.742 77.81 298.722 79.49 297.942 81.59C297.222 83.63 296.862 86.18 296.862 89.24C296.862 92.54 297.552 95.42 298.932 97.88C300.312 100.34 302.172 102.26 304.512 103.64C306.852 104.96 309.432 105.62 312.252 105.62C314.472 105.62 316.302 105.41 317.742 104.99C319.182 104.51 320.382 103.94 321.342 103.28C322.302 102.62 323.142 101.99 323.862 101.39C324.762 100.85 325.662 100.58 326.562 100.58C327.642 100.58 328.542 100.97 329.262 101.75C329.982 102.47 330.342 103.34 330.342 104.36C330.342 105.68 329.682 106.88 328.362 107.96C326.742 109.52 324.492 110.9 321.612 112.1C318.792 113.3 315.822 113.9 312.702 113.9ZM349.754 108.41C349.754 109.73 349.304 110.84 348.404 111.74C347.564 112.58 346.514 113 345.254 113C343.994 113 342.914 112.58 342.014 111.74C341.174 110.84 340.754 109.73 340.754 108.41V50.99C340.754 49.67 341.204 48.59 342.104 47.75C343.004 46.85 344.084 46.4 345.344 46.4C346.664 46.4 347.714 46.85 348.494 47.75C349.334 48.59 349.754 49.67 349.754 50.99V108.41Z" fill="#010038"/>
<path d="M40.5601 100.549C34.4936 106.091 35.4752 114.901 31.0245 121.217C32.8985 121.437 35.0223 121.715 36.9082 121.576C38.1125 121.486 39.3448 120.775 40.5601 121.166C42.0191 121.636 44.8808 123.926 42.3772 125.04C40.8438 125.723 38.921 125.227 37.3139 125.163C36.923 127.484 31.9405 126.478 30.01 126.478C27.0168 126.478 24.064 126.173 21.083 126.105C16.0583 125.991 11.2444 126.261 6.67804 124.036C11.907 128.015 19.2678 125.058 25.1407 126.666C23.7834 127.75 24.8106 128.561 26.1552 129.109V128.921C24.0318 128.055 24.5035 126.703 26.7638 126.872C30.8735 127.179 31.8088 132.664 28.9925 134.845C26.6565 136.654 23.414 136.999 20.4743 137C13.7643 137.002 4.36777 136.242 1.2634 129.86C0.180389 127.634 -0.517136 124.88 0.482895 122.533C1.06822 121.158 2.37927 120.095 2.58277 118.587C3.09729 114.773 2.27073 110.793 2.88426 106.938C3.14883 105.276 4.26328 103.924 4.99165 102.428C5.85818 100.649 6.33111 98.7269 7.28062 96.9795C8.07695 95.514 9.24131 94.2628 10.1241 92.846C11.2882 90.9778 11.8372 88.8599 13.4106 87.2095C15.4462 85.0745 18.1797 82.9384 20.6772 81.2772C21.8406 80.5035 23.4174 79.9872 24.427 79.0568C25.7886 77.8018 26.6086 75.9261 27.6218 74.4328C28.1599 73.6397 29.2175 72.8703 29.5328 71.9902C29.8238 71.1786 29.1362 69.939 28.8603 69.1719C28.0329 66.8708 27.046 64.6689 26.1174 62.4079C24.2622 57.8904 23.8686 54.3833 24.1182 49.6314C24.1991 48.0884 23.9092 46.4557 24.3574 44.9452C24.9338 43.0025 28.4894 47.0058 29.4014 47.5646L31.2273 40.4248H31.4302C31.9123 41.9982 32.6212 45.0151 34.4064 45.7887C35.2129 46.1382 36.6122 45.93 37.5168 46.0773C39.0787 46.3317 40.1396 47.1477 41.5746 47.6159C44.0376 48.4195 45.8944 47.7935 47.1809 50.5708C48.0373 52.4193 47.2258 53.9914 47.0525 55.8317H47.2554V55.2681C49.2615 54.925 53.1448 52.4061 54.1661 50.7587C55.656 48.356 55.7574 44.611 56.4817 41.9279C57.5809 37.8564 59.4048 34.0739 60.779 30.0909C61.624 27.6416 62.5267 25.9475 64.1132 23.8878C64.9423 22.8114 66.36 21.6044 67.9419 22.1249C70.4409 22.9471 71.4635 25.5718 70.805 27.8362C70.1533 30.0772 67.662 31.311 66.7283 33.4729C64.7033 38.1619 64.1631 43.7424 63.1974 48.6919C62.5541 51.989 61.936 55.7692 60.4711 58.838C58.7111 62.5249 56.0547 65.685 54.6953 69.5477C53.2471 73.6621 54.5007 77.5315 53.7313 81.7605C53.3692 83.7516 52.7151 85.6271 51.6556 87.3972C51.122 88.2883 50.0648 89.0384 49.7781 90.0276C49.4849 91.04 49.8929 92.3576 49.8929 93.4096C49.8931 96.4285 49.9615 99.4193 50.1037 102.428C50.3147 106.888 52.1681 110.707 53.0458 115.017C53.4388 116.947 52.7112 119.405 53.296 121.198C53.7875 122.705 58.0276 123.919 56.0318 126.233C55.2754 127.111 53.7638 126.802 52.7333 126.765C51.0218 126.705 49.0065 127.72 47.8515 125.911C46.6577 124.041 47.3398 120.584 46.6394 118.399C46.1336 116.821 45.0368 115.591 44.4339 114.077C42.7771 109.919 41.3692 104.904 40.5601 100.549Z" fill="url(#paint0_linear_594_2178)"/>
<path d="M75.4946 0.0284298C75.1678 0.0950772 74.9364 0.366358 74.7906 0.614933C74.4892 1.12865 74.3459 1.68694 74.2382 2.25392C73.7987 4.56612 73.9427 6.98849 74.877 9.1923C75.134 9.79837 75.4861 10.3652 75.872 10.9132C76.1213 11.2672 76.3883 11.5724 76.918 11.4557C77.1748 11.3991 77.0124 11.0551 77.0115 10.8859C77.0083 10.3056 77.127 9.73117 77.3787 9.1923C77.7354 8.42834 78.186 7.70937 78.7272 7.0343C79.033 6.65296 79.5705 6.23327 79.7664 5.80506C79.9384 5.42889 79.7733 4.88116 79.5537 4.5485C79.3285 4.20713 78.9403 4.01832 78.5903 3.79088C78.1151 3.48215 77.6266 3.11821 77.324 2.66367C77.1942 2.46871 77.2197 2.22595 77.184 2.00807C77.0584 1.24306 76.7224 -0.221954 75.4946 0.0284298ZM77.5377 11.6508C77.5406 10.7541 78.3639 10.0976 79.2404 9.76598C80.8859 9.14332 82.7737 9.13767 84.534 9.13767C84.9799 9.13767 85.4219 9.1548 85.8651 9.19684C86.0407 9.21347 86.314 9.30181 86.4785 9.21885C86.714 9.10016 86.7985 8.72388 86.8332 8.50939C86.948 7.79834 86.2444 7.2557 86.4057 6.51529C86.5313 5.93817 86.9807 5.47194 86.9124 4.84898C86.7588 3.44697 84.9056 3.70806 83.822 4.03889C81.442 4.76553 79.3489 6.72781 78.164 8.64597C77.7446 9.3249 77.3009 10.0914 77.2902 10.8859C77.2866 11.151 77.1877 11.5454 77.5377 11.6508ZM83.6981 9.44973C81.9388 9.6536 79.9073 9.45495 78.4664 10.5902C78.0788 10.8956 77.5904 11.5087 77.759 12.0059C77.8886 12.3883 78.3844 12.6768 78.776 12.8254C80.0322 13.3021 81.5365 13.209 82.8623 13.0635C83.8012 12.9604 84.7425 12.7844 85.6484 12.5446C86.054 12.4372 86.5183 12.3371 86.8219 12.0594C86.9834 11.9117 87.075 11.7177 87.0981 11.5142C87.1095 11.4141 87.0659 11.269 87.1316 11.1815C87.3686 10.866 88.0437 10.765 87.9978 10.285C87.9596 9.88521 87.3828 9.71462 87.0105 9.63579C85.9903 9.41977 84.7428 9.32872 83.6981 9.44973ZM74.0806 10.8267C73.9479 10.8759 74.0889 10.9716 74.164 10.9858C74.7908 11.1044 75.3227 11.1922 75.8661 11.5303C75.9674 11.5934 76.3039 11.7623 76.2799 11.8923C76.2515 12.0462 75.888 11.871 75.8042 11.8473C75.4335 11.7427 75.0158 11.6962 74.6278 11.7406C74.5239 11.7526 74.32 11.7645 74.259 11.8525C74.1822 11.9634 74.3723 11.9659 74.4421 11.9539C74.9153 11.8725 75.7092 11.8408 76.1003 12.1616C76.2702 12.3009 76.1721 12.5491 76.3936 12.7009C76.5621 12.8164 76.8494 12.8365 77.0424 12.7551C77.4061 12.6018 77.4943 12.1213 77.1914 11.88C76.9665 11.7009 76.7017 11.8296 76.4852 11.716C75.8742 11.3952 75.4426 11.0291 74.7207 10.8827C74.5578 10.8496 74.241 10.7672 74.0806 10.8267ZM77.4139 11.9239C77.4247 12.1454 77.3283 12.4889 77.4138 12.6888C77.8522 13.7147 79.1637 13.735 80.1691 13.8439C80.5075 13.8806 80.8155 13.9998 81.1597 14C81.0078 13.5829 80.5577 13.4854 80.1381 13.3955C79.6066 13.2816 79.0412 13.1598 78.5593 12.9261C78.0442 12.6763 77.8391 12.234 77.4139 11.9239Z" fill="#010038"/>
<path d="M418.02 52.6C419.34 53.26 420.09 54.28 420.27 55.66C420.51 57.04 420.18 58.3 419.28 59.44C418.62 60.34 417.75 60.85 416.67 60.97C415.65 61.09 414.63 60.88 413.61 60.34C411.87 59.44 410.04 58.72 408.12 58.18C406.2 57.64 404.16 57.37 402 57.37C398.58 57.37 395.49 57.94 392.73 59.08C390.03 60.16 387.69 61.75 385.71 63.85C383.73 65.89 382.2 68.32 381.12 71.14C380.1 73.96 379.59 77.08 379.59 80.5C379.59 84.28 380.16 87.64 381.3 90.58C382.44 93.46 384 95.92 385.98 97.96C388.02 99.94 390.39 101.44 393.09 102.46C395.85 103.42 398.82 103.9 402 103.9C404.04 103.9 406.02 103.66 407.94 103.18C409.92 102.7 411.78 101.98 413.52 101.02C414.6 100.48 415.65 100.3 416.67 100.48C417.75 100.6 418.62 101.11 419.28 102.01C420.3 103.27 420.66 104.56 420.36 105.88C420.12 107.14 419.37 108.1 418.11 108.76C416.61 109.6 414.96 110.32 413.16 110.92C411.36 111.52 409.53 112 407.67 112.36C405.81 112.72 403.92 112.9 402 112.9C397.68 112.9 393.6 112.18 389.76 110.74C385.92 109.3 382.5 107.2 379.5 104.44C376.5 101.68 374.13 98.29 372.39 94.27C370.71 90.25 369.87 85.66 369.87 80.5C369.87 75.88 370.65 71.62 372.21 67.72C373.83 63.76 376.08 60.37 378.96 57.55C381.9 54.67 385.32 52.45 389.22 50.89C393.12 49.27 397.38 48.46 402 48.46C404.88 48.46 407.67 48.82 410.37 49.54C413.13 50.26 415.68 51.28 418.02 52.6ZM471.877 88.33C471.877 93.13 470.827 97.39 468.727 101.11C466.627 104.77 463.777 107.65 460.177 109.75C456.577 111.85 452.527 112.9 448.027 112.9C443.527 112.9 439.477 111.85 435.877 109.75C432.277 107.65 429.397 104.77 427.237 101.11C425.137 97.39 424.087 93.13 424.087 88.33C424.087 83.47 425.137 79.21 427.237 75.55C429.397 71.83 432.277 68.92 435.877 66.82C439.477 64.66 443.527 63.58 448.027 63.58C452.527 63.58 456.577 64.66 460.177 66.82C463.777 68.92 466.627 71.83 468.727 75.55C470.827 79.21 471.877 83.47 471.877 88.33ZM462.877 88.33C462.877 85.03 462.217 82.18 460.897 79.78C459.577 77.32 457.777 75.4 455.497 74.02C453.277 72.58 450.787 71.86 448.027 71.86C445.267 71.86 442.747 72.58 440.467 74.02C438.187 75.4 436.387 77.32 435.067 79.78C433.747 82.18 433.087 85.03 433.087 88.33C433.087 91.51 433.747 94.33 435.067 96.79C436.387 99.25 438.187 101.17 440.467 102.55C442.747 103.93 445.267 104.62 448.027 104.62C450.787 104.62 453.277 103.93 455.497 102.55C457.777 101.17 459.577 99.25 460.897 96.79C462.217 94.33 462.877 91.51 462.877 88.33ZM517.854 45.4C519.174 45.4 520.254 45.82 521.094 46.66C521.934 47.5 522.354 48.61 522.354 49.99V107.41C522.354 108.73 521.934 109.84 521.094 110.74C520.254 111.58 519.174 112 517.854 112C516.594 112 515.514 111.58 514.614 110.74C513.774 109.84 513.354 108.73 513.354 107.41V100.93L515.244 101.02C515.244 102.1 514.794 103.33 513.894 104.71C513.054 106.03 511.884 107.32 510.384 108.58C508.884 109.84 507.114 110.89 505.074 111.73C503.034 112.51 500.844 112.9 498.504 112.9C494.364 112.9 490.644 111.85 487.344 109.75C484.044 107.59 481.434 104.68 479.514 101.02C477.594 97.3 476.634 93.04 476.634 88.24C476.634 83.44 477.594 79.21 479.514 75.55C481.434 71.83 484.014 68.92 487.254 66.82C490.554 64.66 494.214 63.58 498.234 63.58C500.754 63.58 503.094 64 505.254 64.84C507.474 65.68 509.394 66.76 511.014 68.08C512.634 69.4 513.894 70.81 514.794 72.31C515.694 73.75 516.144 75.13 516.144 76.45L513.354 76.72V49.99C513.354 48.67 513.774 47.59 514.614 46.75C515.514 45.85 516.594 45.4 517.854 45.4ZM499.494 104.62C502.374 104.62 504.864 103.9 506.964 102.46C509.124 101.02 510.804 99.07 512.004 96.61C513.204 94.15 513.804 91.36 513.804 88.24C513.804 85.12 513.204 82.33 512.004 79.87C510.804 77.41 509.124 75.46 506.964 74.02C504.804 72.58 502.314 71.86 499.494 71.86C496.734 71.86 494.274 72.58 492.114 74.02C490.014 75.46 488.334 77.41 487.074 79.87C485.874 82.33 485.274 85.12 485.274 88.24C485.274 91.36 485.874 94.15 487.074 96.61C488.334 99.07 490.014 101.02 492.114 102.46C494.274 103.9 496.734 104.62 499.494 104.62ZM554.012 112.9C549.032 112.9 544.712 111.88 541.052 109.84C537.392 107.74 534.542 104.89 532.502 101.29C530.522 97.63 529.532 93.46 529.532 88.78C529.532 83.5 530.582 79 532.682 75.28C534.842 71.5 537.632 68.62 541.052 66.64C544.472 64.6 548.102 63.58 551.942 63.58C554.882 63.58 557.672 64.18 560.312 65.38C562.952 66.52 565.292 68.14 567.332 70.24C569.432 72.28 571.082 74.71 572.282 77.53C573.482 80.29 574.112 83.32 574.172 86.62C574.112 87.82 573.632 88.81 572.732 89.59C571.832 90.37 570.782 90.76 569.582 90.76H534.572L532.412 83.11H566.252L564.542 84.73V82.48C564.422 80.38 563.732 78.55 562.472 76.99C561.212 75.37 559.652 74.14 557.792 73.3C555.932 72.4 553.982 71.95 551.942 71.95C550.142 71.95 548.402 72.25 546.722 72.85C545.102 73.39 543.632 74.29 542.312 75.55C541.052 76.81 540.032 78.49 539.252 80.59C538.532 82.63 538.172 85.18 538.172 88.24C538.172 91.54 538.862 94.42 540.242 96.88C541.622 99.34 543.482 101.26 545.822 102.64C548.162 103.96 550.742 104.62 553.562 104.62C555.782 104.62 557.612 104.41 559.052 103.99C560.492 103.51 561.692 102.94 562.652 102.28C563.612 101.62 564.452 100.99 565.172 100.39C566.072 99.85 566.972 99.58 567.872 99.58C568.952 99.58 569.852 99.97 570.572 100.75C571.292 101.47 571.652 102.34 571.652 103.36C571.652 104.68 570.992 105.88 569.672 106.96C568.052 108.52 565.802 109.9 562.922 111.1C560.102 112.3 557.132 112.9 554.012 112.9Z" fill="#010038"/>
<defs>
<linearGradient id="paint0_linear_594_2178" x1="10.5" y1="76" x2="62" y2="77" gradientUnits="userSpaceOnUse">
<stop stop-color="#FF9100"/>
<stop offset="1" stop-color="#FF6F00"/>
</linearGradient>
</defs>
</svg>
